<svg width="899" height="154" viewBox="0 0 899 154" fill="none" xmlns="http://www.w3.org/2000/svg">
<path d="M269.461 126.443C269.467 125.088 269.479 116.958 269.501 109.506C269.6 77.2879 269.574 74.8618 270.638 72.0601C281.12 71.9812 296.048 72.3638 296.792 70.4039C299.086 64.3677 278.736 67.4557 270.225 66.1569C268.368 46.0082 269.617 11.5682 271.188 9.95982C277.582 3.41341 298.033 13.4947 295.915 4.07036C291.953 1.99646 261.394 -3.44175 261.122 17.4271C261.114 18.0424 260.986 32.1948 260.983 32.81L260.868 55.0828L260.793 81.926L260.752 120.438C260.72 149.444 260.245 152.237 263.367 153.296C265.257 153.938 268.346 152.241 269.003 150.622C269.184 150.174 269.364 147.725 269.461 126.443Z" fill="#EEEEEE" stroke="#EEEEEE" stroke-width="0.377953" stroke-linecap="round" stroke-linejoin="round"/>
<path d="M125.234 4.91809C125.606 3.94909 124.711 2.93474 123.402 1L99.8895 1.13437C17.6992 1.60405 9.00025 24.7292 3.08431 35.5458C-6.21907 52.556 15.3366 87.8167 73.4961 88.5421L106.875 88.9584C121.093 89.1358 120.797 89.216 121.685 89.1792C125.009 89.0416 126.368 87.0237 125.634 85.2874C124.306 82.1466 110.786 82.9888 108.74 82.9826C107.026 82.9774 96.4561 82.8503 94.4563 82.842C30.7445 82.5762 5.02026 63.2233 11.2932 39.6841C14.2586 28.5565 27.3323 12.289 66.7395 7.76509C102.812 3.62398 123.554 9.29165 125.234 4.91809Z" fill="#EEEEEE" stroke="#EEEEEE" stroke-width="0.377953" stroke-linecap="round" stroke-linejoin="round"/>
<path d="M760.854 69.0107C760.328 67.4823 755.986 67.2001 750.791 67.1619C743.837 67.1107 735.486 67.8298 734.013 66.2412C733.077 65.2315 733.567 5.20282 732.766 4.08733C730.247 0.581324 725.992 3.91899 725.313 4.45296L725.461 87.8555C728.61 89.4805 730.467 89.6967 733.105 88.0034C733.88 85.7045 733.579 83.5982 733.428 81.6207C733.167 78.2417 733.315 75.5046 734.541 72.57C741.132 70.0834 762.794 74.6465 760.854 69.0107Z" fill="#EEEEEE" stroke="#EEEEEE" stroke-width="0.377953" stroke-linecap="round" stroke-linejoin="round"/>
<path d="M197.384 88.0087C197.913 87.4795 198.192 86.798 198.005 86.4944C197.817 86.1906 197.666 81.9273 197.669 77.0202C197.672 72.113 197.403 67.5899 197.071 66.9687C196.6 66.088 195.761 65.8394 193.259 65.8394C187.836 65.8394 187.719 66.0672 187.506 77.0192C187.334 85.8738 187.401 86.5512 188.57 87.7215C190.163 89.3149 195.893 89.5016 197.384 88.0087Z" fill="#EEEEEE" stroke="#EEEEEE" stroke-width="0.377953" stroke-linecap="round" stroke-linejoin="round"/>
<path d="M387.953 81.3364C384.731 83.4162 377.693 84.9945 372.31 82.1053C366.435 78.9523 369.691 71.9336 368.157 69.4333C366.933 67.44 362.742 66.7253 361.571 67.4468C358.429 69.382 356.008 87.873 377.074 88.7609C404.491 89.9164 400.339 70.0864 398.767 68.2903C398.289 67.7428 396.394 66.289 392.746 67.6061C391.213 70.4222 392.521 75.2745 391.01 79.1508C390.618 80.1559 389.118 80.5842 387.953 81.3364Z" fill="#EEEEEE" stroke="#EEEEEE" stroke-width="0.377953" stroke-linecap="round" stroke-linejoin="round"/>
<path d="M501.042 1.88171C499.614 3.74298 499.07 4.3762 499.458 5.143C500.76 7.71202 510.698 6.40411 528.676 6.50835C539.196 6.56939 552.496 6.57173 568.434 9.5819C573.201 10.4821 578.402 12.074 583.503 14.2216C590.134 17.0132 602.525 22.0272 608.989 30.9181C614.343 38.2841 615.506 47.6948 610.083 57.2653C602.438 70.7565 588.248 78.0554 569.262 81.2675C559.233 82.9641 547.497 83.1591 535.468 83.3075C532.467 83.3446 509.138 83.0406 508.625 82.9151L508.571 82.7937C508.094 44.4781 507.673 25.0324 507.308 24.4569C506.922 23.85 504.093 21.5669 501.372 22.4988C500.309 22.8629 499.614 23.3761 498.465 25.3593C498.497 66.4445 498.85 87.3154 499.523 87.9718C500.389 88.8163 546.01 88.6643 546.333 88.6597C590.869 88.0284 627.895 66.3091 620.194 38.8636C614.412 18.2549 591.412 8.33688 569.25 4.34657C548.869 0.676727 529.197 2.1481 524.276 2.10104L502.427 1.72241L501.042 1.88171Z" fill="#EEEEEE" stroke="#EEEEEE" stroke-width="0.377953" stroke-linecap="round" stroke-linejoin="round"/>
<path d="M708.03 1.49713C707.16 1.4514 704.388 2.92465 704.159 4.8888C703.627 9.43228 703.783 13.4436 703.766 17.12C703.736 23.6781 703.882 29.5337 703.753 38.0268C703.518 53.5972 703.55 67.4228 703.067 76.9513C702.84 81.421 701.132 81.2636 700.685 81.844C699.982 82.7565 697.222 82.8534 695.246 82.9906C693.741 83.0951 692.847 83.3627 691.131 83.2132C685.479 82.7208 679.755 80.7965 680.853 76.5969C682.036 72.0715 691.966 72.9178 697.083 70.4524C696.802 68.7321 696.682 67.0767 695.242 66.3839C691.414 64.5425 684.582 65.6129 679.543 68.661C672.895 72.6826 668.495 79.2775 675.053 84.0176C678.254 86.3315 685.194 88.9367 692.443 88.9891C693.493 88.9966 694.875 88.9401 695.911 88.808C699.829 88.3087 704.724 87.8849 707.529 84.2227C708.548 82.8929 709.474 81.7359 710.026 79.74C710.429 78.285 710.555 77.0692 710.425 74.6434C710.293 72.1846 710.622 48.8032 711.413 4.49917C710.936 2.59822 709.43 1.57072 708.03 1.49713Z" fill="#EEEEEE" stroke="#EEEEEE" stroke-width="0.377953" stroke-linecap="round" stroke-linejoin="round"/>
<path d="M870.23 74.6989C872.038 72.5907 875.028 72.2221 877.969 71.5611C879.542 71.2077 881.212 71.2161 882.771 71.863C885.838 73.1365 888.938 74.0841 891.412 73.2639C892.106 73.0341 894.128 72.7949 894.41 72.1602C895.182 70.4242 893.724 69.9872 891.929 68.8175C891.373 68.4556 890.321 68.0455 889.492 67.8703C888.227 67.6027 887.04 67.4951 885.465 67.3722C882.142 67.1128 878.468 66.9933 875.289 67.4088C867.42 68.4375 860.124 72.1615 860.034 77.565C859.981 80.7499 870.463 79.1921 878.126 79.2645C880.641 79.2883 883.466 79.0345 884.994 79.331C887.981 79.9111 887.92 81.0646 887.956 81.5433C888.195 84.6997 868.211 80.7948 864.172 83.6978C864.963 84.6996 865.625 85.2913 866.776 85.865C869.435 87.1911 872.591 88.361 876.297 88.4445C881.953 88.5719 888.117 87.9914 892.61 85.6354C895.681 84.0249 897.242 81.3963 898.344 79.3219C901.292 73.7755 886.453 76.0397 876.455 75.3819C873.962 75.2179 871.77 75.4959 870.23 74.6989Z" fill="#EEEEEE" stroke="#EEEEEE" stroke-width="0.377953" stroke-linecap="round" stroke-linejoin="round"/>
<path d="M433.517 70.2475C434.71 66.0395 426.961 66.3856 420.683 69.3602C410.6 74.1379 413.817 86.8242 414.647 87.6258C415.726 88.6671 418.742 88.58 420.002 87.5832C423.108 85.1258 421.194 78.6325 423.476 75.7039C426.902 71.3079 432.706 73.106 433.517 70.2475Z" fill="#EEEEEE" stroke="#EEEEEE" stroke-width="0.377953" stroke-linecap="round" stroke-linejoin="round"/>
<path d="M844.717 70.4899C844.808 70.224 845.234 69.3176 845.021 68.5404C844.757 67.5762 843.778 66.7214 843.123 66.4801C842.072 66.0923 838.05 67.3056 834.651 68.8281C832.076 69.9816 829.145 71.4333 827.509 73.3872C826.377 74.7387 826.376 77.0729 826.436 79.6241C826.524 83.3705 825.808 86.9716 827.12 87.7097C829.596 89.1022 831.281 88.1946 831.729 87.9827C833.28 87.2501 834.156 84.8634 834.226 82.6168C834.314 79.7698 833.409 76.9463 834.269 75.7802C834.938 74.8715 836.803 73.0365 839.114 72.116C841.598 71.1262 844.521 71.0641 844.717 70.4899Z" fill="#EEEEEE" stroke="#EEEEEE" stroke-width="0.377953" stroke-linecap="round" stroke-linejoin="round"/>
<path d="M196.552 13.1338C197.851 11.5681 198.026 5.4869 196.839 3.1894C196.156 1.86702 193.11 1.93274 192.05 1.94389C188.999 1.97594 187.287 3.82625 187.145 7.24438C187.02 10.2515 188.012 13.152 189.35 13.6907C191.178 14.4266 195.775 14.0712 196.552 13.1338Z" fill="#EEEEEE" stroke="#EEEEEE" stroke-width="0.377953" stroke-linecap="round" stroke-linejoin="round"/>
<path d="M165.958 86.8057C189.259 74.2846 152.928 57.5264 138.112 72.1011C126.887 83.1426 152.088 94.2587 165.958 86.8057ZM164.507 75.1936C165.055 76.0654 165.027 79.1602 164.395 80.3403C161.166 86.3733 143.065 84.4448 145.7 76.9091C147.57 71.5608 161.493 70.3962 164.507 75.1936Z" fill="#EEEEEE" stroke="#EEEEEE" stroke-width="0.377953" stroke-linecap="round" stroke-linejoin="round"/>
<path d="M321.189 81.4631C323.594 79.927 327.974 80.0713 332.038 80.1678C336.404 80.2715 340.458 80.3716 342.847 79.8145C344.751 79.3705 347.071 79.5198 347.153 76.5189C344.838 68.777 338.453 68.2496 332.175 67.534C322.021 66.3764 311.445 70.2531 310.052 75.8605C308.672 81.4161 312.155 84.3745 317.048 86.3129C327.778 90.5637 346.562 87.9678 344.381 83.6488C343.72 82.3393 333.648 83.4346 326.372 82.6889C324.878 82.5357 322.341 81.8069 321.189 81.4631ZM320.597 75.0915C320.597 74.8235 321.836 74.0018 323.35 73.2655C327.229 71.3794 332.447 71.4194 335.069 73.3552C336.133 74.1409 336.825 74.9627 336.607 75.1814C336.031 75.7578 320.597 75.6712 320.597 75.0915Z" fill="#EEEEEE" stroke="#EEEEEE" stroke-width="0.377953" stroke-linecap="round" stroke-linejoin="round"/>
<path d="M220.837 125.693C220.843 124.338 220.854 116.208 220.877 108.756C220.976 76.5374 220.949 74.1112 222.014 71.3096C232.496 71.2306 247.423 71.6132 248.168 69.6533C250.461 63.6171 230.111 66.7051 221.6 65.4063C219.744 45.2577 220.992 10.8176 222.563 9.2092C228.957 2.66279 249.409 12.7442 247.291 3.31979C243.329 1.24592 212.77 -4.19221 212.498 16.6766C212.49 17.2919 212.361 31.4442 212.358 32.0595L212.243 54.3322L212.169 81.1756L212.127 119.687C212.096 148.694 211.621 151.486 214.742 152.546C216.632 153.187 219.722 151.491 220.378 149.872C220.56 149.424 220.74 146.974 220.837 125.693Z" fill="#EEEEEE" stroke="#EEEEEE" stroke-width="0.377953" stroke-linecap="round" stroke-linejoin="round"/>
<path d="M632.385 81.2968C634.79 79.7608 639.17 79.905 643.234 80.0015C647.601 80.1053 651.654 80.2053 654.043 79.6482C655.947 79.2042 658.267 79.3535 658.349 76.3526C656.033 68.6108 649.649 68.0833 643.372 67.3677C633.217 66.2101 622.642 70.0867 621.248 75.6942C619.868 81.2498 623.351 84.2082 628.244 86.1466C638.974 90.3974 657.758 87.8015 655.578 83.4825C654.916 82.173 644.844 83.2682 637.568 82.5225C636.074 82.3694 633.537 81.6407 632.385 81.2968ZM631.793 74.9253C631.793 74.6573 633.032 73.8355 634.546 73.0992C638.425 71.2132 643.643 71.2532 646.265 73.189C647.329 73.9746 648.021 74.7965 647.803 75.0152C647.227 75.5915 631.793 75.5049 631.793 74.9253Z" fill="#EEEEEE" stroke="#EEEEEE" stroke-width="0.377953" stroke-linecap="round" stroke-linejoin="round"/>
<path d="M784.159 81.6357C786.565 80.0997 790.944 80.244 795.008 80.3405C799.375 80.4442 803.428 80.5441 805.817 79.9872C807.721 79.5432 810.041 79.6924 810.124 76.6915C807.808 68.9497 801.423 68.4223 795.146 67.7068C784.992 66.5491 774.415 70.4256 773.022 76.0332C771.642 81.5888 775.125 84.5472 780.018 86.4856C790.749 90.7364 809.533 88.1404 807.352 83.8214C806.69 82.512 796.618 83.6071 789.343 82.8614C787.848 82.7083 785.311 81.9796 784.159 81.6357ZM783.567 75.2644C783.567 74.9963 784.806 74.1744 786.321 73.4381C790.2 71.5522 795.417 71.5922 798.039 73.5279C799.103 74.3136 799.795 75.1355 799.577 75.3542C799.001 75.9306 783.567 75.844 783.567 75.2644Z" fill="#EEEEEE" stroke="#EEEEEE" stroke-width="0.377953" stroke-linecap="round" stroke-linejoin="round"/>
</svg>
