<svg width="797" height="920" viewBox="0 0 797 920" fill="none" xmlns="http://www.w3.org/2000/svg">
<g clip-path="url(#clip0_16_4)">
<path fill-rule="evenodd" clip-rule="evenodd" d="M95.5001 1.5C117.423 0.972143 137.757 6.47214 156.5 18C179.404 31.9524 201.071 47.6191 221.5 65C244.576 85.0723 266.742 106.239 288 128.5C320 164.5 352 200.5 384 236.5C409 262.833 434 289.167 459 315.5C459.667 316.5 459.667 317.5 459 318.5C433.528 342.972 408.361 367.805 383.5 393C376.449 393.211 369.449 393.878 362.5 395C341.738 405.043 323.071 418.043 306.5 434C304.248 433.95 302.582 432.784 301.5 430.5C324.481 404.351 347.648 378.351 371 352.5C375.072 347.868 376.405 342.535 375 336.5C373.293 335.541 371.459 334.875 369.5 334.5C366.053 335.723 362.72 337.223 359.5 339C333.833 363.333 308.167 387.667 282.5 412C280.248 411.95 278.582 410.784 277.5 408.5C301.186 381.982 324.686 355.315 348 328.5C351.884 323.869 353.051 318.702 351.5 313C346.5 310.832 341.833 311.498 337.5 315C313.167 338 288.833 361 264.5 384C262.323 385.515 260.156 387.015 258 388.5C254.446 387.401 253.779 385.401 256 382.5C278.667 357.167 301.333 331.833 324 306.5C328.005 301.841 329.672 296.507 329 290.5C323.01 287.499 317.51 288.332 312.5 293C287.167 317 261.833 341 236.5 365C233.906 365.449 231.906 364.449 230.5 362C254.451 335.261 278.284 308.427 302 281.5C310.176 267.303 306.676 262.803 291.5 268C264.976 292.435 238.643 317.102 212.5 342C209.667 341.833 208.167 340.333 208 337.5C231 311.833 254 286.167 277 260.5C281.306 255.569 282.972 249.903 282 243.5C279.757 241.718 277.257 241.218 274.5 242C271.853 243.299 269.186 244.632 266.5 246C240.833 270.333 215.167 294.667 189.5 319C187.613 319.163 186.113 318.329 185 316.5C185.747 314.024 187.081 311.691 189 309.5C211 284.833 233 260.167 255 235.5C257.636 232.137 259.136 228.303 259.5 224C259.516 221.695 258.516 220.028 256.5 219C253.442 218.542 250.442 218.876 247.5 220C219.93 244.302 192.93 269.302 166.5 295C163 295.5 161.5 294 162 290.5C184.667 265.167 207.333 239.833 230 214.5C234.006 209.804 236.006 204.47 236 198.5C235.692 197.692 235.192 197.025 234.5 196.5C229.439 194.867 224.772 195.701 220.5 199C194.618 224.051 168.285 248.551 141.5 272.5C140.019 271.52 138.685 270.353 137.5 269C160.629 242.203 184.129 215.703 208 189.5C210.505 185.824 212.338 181.824 213.5 177.5C213.167 173.833 211.167 171.833 207.5 171.5C203.116 172.526 199.116 174.359 195.5 177C170.167 201 144.833 225 119.5 249C116.667 248.833 115.167 247.333 115 244.5C139.038 218.131 162.705 191.464 186 164.5C193.395 149.565 189.561 145.398 174.5 152C149.5 175.667 124.5 199.333 99.5001 223C97.0491 225.84 94.5491 226.006 92.0001 223.5C92.0441 221.721 92.7108 220.055 94.0001 218.5C116.333 193.5 138.667 168.5 161 143.5C165.191 138.612 166.691 133.112 165.5 127C159.574 124.563 154.24 125.563 149.5 130C124.167 154 98.8334 178 73.5001 202C70.0001 202.5 68.5001 201 69.0001 197.5C92.5684 171.355 115.902 145.021 139 118.5C147.053 103.076 143.219 98.9095 127.5 106C101.547 130.964 75.2142 155.464 48.5001 179.5C46.2164 178.418 45.0497 176.752 45.0001 174.5C68.0001 148.833 91.0001 123.167 114 97.5C115.935 94.6293 117.601 91.6293 119 88.5C119.777 85.5706 119.61 82.7372 118.5 80C117.127 79.1251 115.627 78.6251 114 78.5C110.094 79.0783 106.594 80.5783 103.5 83C77.8334 107.333 52.1668 131.667 26.5001 156C24.6134 156.163 23.1134 155.329 22.0001 153.5C22.7474 151.024 24.0807 148.691 26.0001 146.5C48.0001 121.833 70.0001 97.1667 92.0001 72.5C94.5721 69.2869 96.0721 65.6203 96.5001 61.5C96.5001 57.5 94.5001 55.5 90.5001 55.5C87.9723 55.7628 85.639 56.5961 83.5001 58C57.5001 84 31.5001 110 5.50006 136C1.81813 135.532 0.651472 133.365 2.00007 129.5C24.2313 86.6349 50.3979 46.4683 80.5001 9C85.3134 5.92666 90.3134 3.42666 95.5001 1.5Z" fill="white"/>
<path fill-rule="evenodd" clip-rule="evenodd" d="M796.5 664.5C796.5 668.833 796.5 673.167 796.5 677.5C789.351 703.538 775.017 725.038 753.5 742C736.409 754.673 718.742 755.673 700.5 745C694.634 739.469 689.134 733.635 684 727.5C662.911 689.638 639.578 653.305 614 618.5C565.053 554.372 511.22 494.372 452.5 438.5C472.167 415.833 491.833 393.167 511.5 370.5C538.348 397.514 565.014 424.681 591.5 452C640.533 498.034 689.866 543.701 739.5 589C752.188 597.679 763.688 607.846 774 619.5C785.271 632.709 792.771 647.709 796.5 664.5Z" fill="white"/>
<path fill-rule="evenodd" clip-rule="evenodd" d="M378.5 407.5C378.444 405.36 377.777 403.694 376.5 402.5C373.69 405.136 370.69 407.636 367.5 410C316.345 444.413 264.679 478.08 212.5 511C200.369 514.849 188.035 515.516 175.5 513C165.346 510.103 155.012 508.103 144.5 507C119.352 503.468 95.6853 507.802 73.5 520C41.9594 539.067 24.9594 567.067 22.5 604C25.4891 644.994 46.8224 670.994 86.5 682C138.661 688.673 176.827 668.839 201 622.5C207.188 600.705 212.521 578.705 217 556.5C219.412 551.341 222.079 546.341 225 541.5C238.794 525.362 254.961 512.195 273.5 502C305.332 484.249 338.665 470.083 373.5 459.5C375.285 442.194 376.952 424.861 378.5 407.5ZM175 555.5C160.221 537.397 141.055 529.063 117.5 530.5C83.3607 536.34 60.5274 555.673 49.0001 588.5C43.0957 620.531 54.9291 643.031 84.5001 656C123.1 664.442 153.266 652.275 175 619.5C187.565 598.103 187.565 576.77 175 555.5Z" fill="white"/>
<path fill-rule="evenodd" clip-rule="evenodd" d="M217.5 919.5H210.5C206.048 918.737 201.715 917.237 197.5 915C194.5 912.333 192.833 909 192.5 905C201.394 875.596 210.061 846.096 218.5 816.5C190.579 802.385 174.413 779.718 170 748.5C168.375 698.905 189.875 663.405 234.5 642C254.379 635.929 274.045 629.263 293.5 622C302 616.167 309.167 609 315 600.5C335.771 567.29 353.105 532.29 367 495.5C379.306 463.637 385.306 430.637 385 396.5C403.25 378.583 421.5 360.667 439.75 342.75C458 324.833 476.25 306.917 494.5 289C573.26 212.57 652.927 137.236 733.5 63C744.076 53.8028 754.909 44.9695 766 36.5C769.118 38.6149 771.952 41.1149 774.5 44C692.931 144.959 610.765 245.459 528 345.5C496.449 383.391 463.782 420.391 430 456.5C418.51 471.481 407.51 486.814 397 502.5C373.401 544.369 354.734 588.369 341 634.5C338.656 644.714 337.99 655.048 339 665.5C346.891 691.784 348.557 718.451 344 745.5C328.045 795.127 294.045 820.794 242 822.5C236.016 852.722 230.683 883.055 226 913.5C223.814 916.535 220.981 918.535 217.5 919.5ZM261.5 660.5C300.092 661.592 320.426 681.425 322.5 720C321.136 749.4 308.136 772.067 283.5 788C259.707 801.467 236.707 800.467 214.5 785C196.616 767.013 190.449 745.513 196 720.5C206.009 687.315 227.842 667.315 261.5 660.5ZM470.378 377.416C466.069 366.174 457.902 361.507 445.878 363.416C443.609 364.892 441.276 366.392 438.878 367.916C429.629 380.002 431.295 390.336 443.878 398.916C461.4 402.39 470.233 395.224 470.378 377.416Z" fill="white"/>
<path fill-rule="evenodd" clip-rule="evenodd" d="M466.526 386.276C467.303 371.889 460.47 365.556 446.026 367.276C443.755 369.042 441.589 371.042 439.526 373.276C434.659 382.808 436.826 390.308 446.026 395.776C455.502 398.119 462.336 394.953 466.526 386.276ZM463.921 379.562C455.928 379.062 447.928 378.896 439.921 379.062C438.693 380.572 438.693 382.072 439.921 383.562C447.921 384.229 455.921 384.229 463.921 383.562C465.254 382.229 465.254 380.895 463.921 379.562Z" fill="white"/>
</g>
<defs>
<clipPath id="clip0_16_4">
<rect width="797" height="920" fill="white"/>
</clipPath>
</defs>
</svg>
