<svg width="296" height="667" viewBox="0 0 296 667" fill="none" xmlns="http://www.w3.org/2000/svg">
<path d="M1.73334 1.46665C-0.533325 3.73332 -0.533325 9.46665 1.60001 12.4C2.53334 13.6 6.53334 15.2 10.2667 16C14.1333 16.6667 19.0667 18.1333 21.3333 19.3333C26.6667 22 34.1333 29.7333 38.8 37.0667L42.6667 43.0667L35.3333 50.8C22.4 64.4 16.2667 82 17.8667 101.333C20.1333 129.2 34.9333 151.2 59.0667 162.667C71.6 168.667 76 172.933 87.0667 190.133C96 203.867 111.467 234.4 123.333 261.2C133.333 283.6 133.6 284.533 132 289.333C130 295.467 130.933 500.667 133.2 540C137.2 610.667 141.467 644.133 148.667 659.6C151.467 665.867 152.267 666.667 156 666.667C159.733 666.667 160.533 665.867 163.333 659.6C170.4 643.867 174.933 608.133 178.8 534.667C179.6 519.6 180.533 456.8 180.8 395.067L181.467 282.667L189.467 264.4C207.6 222.933 223.6 193.2 236.4 177.333C242.4 169.867 245.067 167.867 255.2 162.8C282.133 149.467 296 126.667 296 95.7333C296 75.4667 290.4 60.8 278 49.4667C254.133 27.4667 218.533 33.7333 198.133 63.6C190.8 74.4 187.067 84.6667 185.333 98.1333C183.2 114.8 185.333 124.533 194.933 143.733C203.067 159.733 203.2 160.4 203.733 172.533C204.133 181.6 203.733 187.067 202 192.8C200.133 199.467 183.067 240.267 171.867 264.933L168.667 272H157.733C147.733 272 146.533 271.733 144.8 268.933C142.667 265.733 125.867 227.867 116.933 206.133C111.467 192.8 111.333 192.533 111.333 176V159.333L118.933 144.667C127.6 128 129.467 120.933 129.467 106.533C129.6 82.8 118.933 61.0667 100.4 47.2C90 39.4667 81.6 36.6667 67.8667 36.6667H56.2667L53.2 30.6667C48 21.0667 36.6667 9.86665 27.6 5.33332C18.1333 0.666652 4.40001 -1.33335 1.73334 1.46665ZM87.6 56C97.7334 61.0667 105.6 69.6 111.067 81.0667C114.667 88.8 115.333 91.7333 115.733 103.333C116.4 119.733 113.6 128.533 104.533 138.533C96.5334 147.467 89.4667 150.667 77.7333 150.933C60.2667 151.2 45.3333 140.667 36.4 122C24 95.7333 33.2 64 56.2667 54C58.6667 52.9333 64.9333 52.1333 70.1333 52C78 52 80.9333 52.6667 87.6 56ZM256.267 53.6C263.333 55.7333 274 65.4667 278.133 73.4667C284.933 86.9333 284.667 108 277.467 123.2C272.8 132.933 261.6 144.133 252.667 148.133C244.4 151.867 230.533 151.867 222.4 148.267C187.867 133.067 190.8 74.1333 226.933 56.1333C236 51.6 246.533 50.6667 256.267 53.6ZM165.067 308.8C166.667 310.667 168 313.6 168 315.467C168 320 161.2 326.667 156.667 326.667C152.533 326.667 145.333 320.133 145.333 316.4C145.467 312.8 148.533 307.867 152.133 305.867C156.267 303.467 161.333 304.667 165.067 308.8Z" fill="#EEEEEE"/>
</svg>
